<svg width="131" height="50" viewBox="0 0 131 50" fill="none" xmlns="http://www.w3.org/2000/svg">
<path d="M11.4472 41.352C9.52293 41.352 7.6808 41.0821 5.9208 40.5424C4.1608 39.9792 2.76453 39.2635 1.732 38.3952L3.316 34.84C4.3016 35.6144 5.52187 36.2597 6.9768 36.776C8.43173 37.2923 9.92187 37.5504 11.4472 37.5504C12.7379 37.5504 13.7821 37.4096 14.58 37.128C15.3779 36.8464 15.9645 36.4709 16.34 36.0016C16.7155 35.5088 16.9032 34.9573 16.9032 34.3472C16.9032 33.5963 16.6333 32.9979 16.0936 32.552C15.5539 32.0827 14.8499 31.7189 13.9816 31.4608C13.1368 31.1792 12.1864 30.9211 11.1304 30.6864C10.0979 30.4517 9.0536 30.1819 7.9976 29.8768C6.96507 29.5483 6.01467 29.1376 5.1464 28.6448C4.3016 28.1285 3.60933 27.448 3.0696 26.6032C2.52987 25.7584 2.26 24.6789 2.26 23.3648C2.26 22.0272 2.612 20.8069 3.316 19.704C4.04347 18.5776 5.13467 17.6859 6.5896 17.0288C8.068 16.3483 9.9336 16.008 12.1864 16.008C13.6648 16.008 15.1315 16.1957 16.5864 16.5712C18.0413 16.9467 19.3085 17.4864 20.388 18.1904L18.9448 21.7456C17.8419 21.0885 16.7037 20.6075 15.5304 20.3024C14.3571 19.9739 13.2307 19.8096 12.1512 19.8096C10.884 19.8096 9.85147 19.9621 9.0536 20.2672C8.2792 20.5723 7.70427 20.9712 7.3288 21.464C6.9768 21.9568 6.8008 22.52 6.8008 23.1536C6.8008 23.9045 7.05893 24.5147 7.5752 24.984C8.11493 25.4299 8.8072 25.7819 9.652 26.04C10.5203 26.2981 11.4824 26.5563 12.5384 26.8144C13.5944 27.0491 14.6387 27.3189 15.6712 27.624C16.7272 27.9291 17.6776 28.328 18.5224 28.8208C19.3907 29.3136 20.0829 29.9824 20.5992 30.8272C21.1389 31.672 21.4088 32.7397 21.4088 34.0304C21.4088 35.3445 21.0451 36.5648 20.3176 37.6912C19.6136 38.7941 18.5224 39.6859 17.044 40.3664C15.5656 41.0235 13.7 41.352 11.4472 41.352ZM30.1786 41L22.1178 22.2032H26.6938L33.6282 38.7824H31.3754L38.5562 22.2032H42.7802L34.7194 41H30.1786ZM53.4625 41.2464C51.5383 41.2464 49.8252 40.8357 48.3233 40.0144C46.8215 39.1696 45.6364 38.0197 44.7681 36.5648C43.8999 35.1099 43.4657 33.4555 43.4657 31.6016C43.4657 29.7243 43.8999 28.0699 44.7681 26.6384C45.6364 25.1835 46.8215 24.0453 48.3233 23.224C49.8252 22.4027 51.5383 21.992 53.4625 21.992C55.4103 21.992 57.1351 22.4027 58.6369 23.224C60.1623 24.0453 61.3473 25.1717 62.1921 26.6032C63.0604 28.0347 63.4945 29.7008 63.4945 31.6016C63.4945 33.4555 63.0604 35.1099 62.1921 36.5648C61.3473 38.0197 60.1623 39.1696 58.6369 40.0144C57.1351 40.8357 55.4103 41.2464 53.4625 41.2464ZM53.4625 37.48C54.542 37.48 55.5041 37.2453 56.3489 36.776C57.1937 36.3067 57.8508 35.6261 58.3201 34.7344C58.8129 33.8427 59.0593 32.7984 59.0593 31.6016C59.0593 30.3813 58.8129 29.3371 58.3201 28.4688C57.8508 27.5771 57.1937 26.8965 56.3489 26.4272C55.5041 25.9579 54.5537 25.7232 53.4977 25.7232C52.4183 25.7232 51.4561 25.9579 50.6113 26.4272C49.79 26.8965 49.1329 27.5771 48.6401 28.4688C48.1473 29.3371 47.9009 30.3813 47.9009 31.6016C47.9009 32.7984 48.1473 33.8427 48.6401 34.7344C49.1329 35.6261 49.79 36.3067 50.6113 36.776C51.4561 37.2453 52.4065 37.48 53.4625 37.48ZM65.766 48.0752C64.9447 48.0752 64.1703 47.9813 63.4428 47.7936C62.6919 47.6293 62.0583 47.3595 61.542 46.984L62.8092 43.7104C63.4898 44.2032 64.3463 44.4496 65.3788 44.4496C66.1767 44.4496 66.7986 44.1915 67.2444 43.6752C67.6903 43.1824 67.9132 42.4432 67.9132 41.4576V22.2032H72.3132V41.352C72.3132 43.4171 71.7383 45.048 70.5884 46.2448C69.462 47.4651 67.8546 48.0752 65.766 48.0752ZM70.0956 19.1056C69.2743 19.1056 68.5938 18.8475 68.054 18.3312C67.5378 17.8149 67.2796 17.1931 67.2796 16.4656C67.2796 15.7147 67.5378 15.0928 68.054 14.6C68.5938 14.0837 69.2743 13.8256 70.0956 13.8256C70.917 13.8256 71.5858 14.072 72.102 14.5648C72.6418 15.0341 72.9116 15.6325 72.9116 16.36C72.9116 17.1344 72.6535 17.7915 72.1372 18.3312C71.621 18.8475 70.9404 19.1056 70.0956 19.1056ZM86.9185 41.2464C84.8299 41.2464 82.9995 40.8357 81.4273 40.0144C79.8785 39.1696 78.6699 38.0197 77.8017 36.5648C76.9569 35.1099 76.5345 33.4555 76.5345 31.6016C76.5345 29.7243 76.9451 28.0699 77.7665 26.6384C78.6113 25.1835 79.7611 24.0453 81.2161 23.224C82.6945 22.4027 84.3723 21.992 86.2497 21.992C88.0801 21.992 89.711 22.3909 91.1425 23.1888C92.5739 23.9867 93.7003 25.1131 94.5217 26.568C95.343 28.0229 95.7537 29.736 95.7537 31.7072C95.7537 31.8949 95.7419 32.1061 95.7185 32.3408C95.7185 32.5755 95.7067 32.7984 95.6833 33.0096H80.0193V30.088H93.3601L91.6353 31.0032C91.6587 29.9237 91.4358 28.9733 90.9665 28.152C90.4971 27.3307 89.8518 26.6853 89.0305 26.216C88.2326 25.7467 87.3057 25.512 86.2497 25.512C85.1702 25.512 84.2198 25.7467 83.3985 26.216C82.6006 26.6853 81.967 27.3424 81.4977 28.1872C81.0518 29.0085 80.8289 29.9824 80.8289 31.1088V31.8128C80.8289 32.9392 81.087 33.9365 81.6033 34.8048C82.1195 35.6731 82.847 36.3419 83.7857 36.8112C84.7243 37.2805 85.8038 37.5152 87.0241 37.5152C88.0801 37.5152 89.0305 37.3509 89.8753 37.0224C90.7201 36.6939 91.471 36.1776 92.1281 35.4736L94.4865 38.184C93.6417 39.1696 92.5739 39.9323 91.2833 40.472C90.0161 40.9883 88.5611 41.2464 86.9185 41.2464ZM105.788 41.2464C104.216 41.2464 102.702 41.0469 101.247 40.648C99.8159 40.2256 98.6778 39.7211 97.833 39.1344L99.5226 35.7904C100.367 36.3301 101.376 36.776 102.55 37.128C103.723 37.48 104.896 37.656 106.07 37.656C107.454 37.656 108.452 37.4683 109.062 37.0928C109.695 36.7173 110.012 36.2128 110.012 35.5792C110.012 35.0629 109.801 34.6757 109.379 34.4176C108.956 34.136 108.405 33.9248 107.724 33.784C107.044 33.6432 106.281 33.5141 105.436 33.3968C104.615 33.2795 103.782 33.1269 102.937 32.9392C102.116 32.728 101.365 32.4347 100.684 32.0592C100.004 31.6603 99.4522 31.1323 99.0298 30.4752C98.6074 29.8181 98.3962 28.9499 98.3962 27.8704C98.3962 26.6736 98.7364 25.6411 99.417 24.7728C100.097 23.8811 101.048 23.2005 102.268 22.7312C103.512 22.2384 104.979 21.992 106.668 21.992C107.935 21.992 109.214 22.1328 110.505 22.4144C111.796 22.696 112.863 23.0949 113.708 23.6112L112.019 26.9552C111.127 26.4155 110.223 26.0517 109.308 25.864C108.416 25.6528 107.525 25.5472 106.633 25.5472C105.295 25.5472 104.298 25.7467 103.641 26.1456C103.007 26.5445 102.691 27.0491 102.691 27.6592C102.691 28.2224 102.902 28.6448 103.324 28.9264C103.747 29.208 104.298 29.4309 104.979 29.5952C105.659 29.7595 106.41 29.9003 107.231 30.0176C108.076 30.1115 108.909 30.264 109.731 30.4752C110.552 30.6864 111.303 30.9797 111.983 31.3552C112.687 31.7072 113.251 32.2117 113.673 32.8688C114.095 33.5259 114.307 34.3824 114.307 35.4384C114.307 36.6117 113.955 37.6325 113.251 38.5008C112.57 39.3691 111.596 40.0496 110.329 40.5424C109.062 41.0117 107.548 41.2464 105.788 41.2464ZM125.171 41.2464C123.106 41.2464 121.51 40.7184 120.384 39.6624C119.257 38.5829 118.694 36.9989 118.694 34.9104V18.0496H123.094V34.8048C123.094 35.6965 123.317 36.3888 123.763 36.8816C124.232 37.3744 124.878 37.6208 125.699 37.6208C126.685 37.6208 127.506 37.3627 128.163 36.8464L129.395 39.9792C128.879 40.4016 128.245 40.7184 127.494 40.9296C126.743 41.1408 125.969 41.2464 125.171 41.2464ZM115.597 25.864V22.344H128.128V25.864H115.597Z" fill="white"/>
<path d="M94.4884 12.1443C93.6994 12.1443 92.9441 12.0337 92.2225 11.8124C91.5009 11.5815 90.9285 11.288 90.5051 10.932L91.1546 9.4744C91.5587 9.7919 92.059 10.0565 92.6555 10.2682C93.252 10.4798 93.863 10.5857 94.4884 10.5857C95.0175 10.5857 95.4457 10.5279 95.7728 10.4125C96.0999 10.297 96.3405 10.1431 96.4944 9.95066C96.6483 9.74861 96.7253 9.52251 96.7253 9.27235C96.7253 8.96447 96.6147 8.71913 96.3934 8.53632C96.1721 8.34389 95.8834 8.19476 95.5275 8.08893C95.1811 7.97347 94.7914 7.86764 94.3585 7.77142C93.9351 7.67521 93.507 7.56457 93.074 7.43949C92.6507 7.30479 92.261 7.13642 91.905 6.93437C91.5587 6.7227 91.2748 6.44368 91.0535 6.09731C90.8322 5.75094 90.7216 5.30836 90.7216 4.76957C90.7216 4.22115 90.8659 3.72084 91.1546 3.26864C91.4528 2.80682 91.9002 2.4412 92.4967 2.17181C93.1029 1.89279 93.8678 1.75328 94.7914 1.75328C95.3976 1.75328 95.9989 1.83025 96.5954 1.98419C97.1919 2.13813 97.7115 2.35942 98.1541 2.64806L97.5624 4.1057C97.1102 3.8363 96.6435 3.63906 96.1625 3.51398C95.6814 3.37928 95.2196 3.31194 94.777 3.31194C94.2574 3.31194 93.8341 3.37447 93.507 3.49955C93.1895 3.62463 92.9537 3.78819 92.7998 3.99024C92.6555 4.19229 92.5833 4.4232 92.5833 4.68298C92.5833 4.99086 92.6892 5.24101 92.9008 5.43344C93.1221 5.61625 93.406 5.76057 93.7523 5.8664C94.1083 5.97223 94.5028 6.07807 94.9357 6.1839C95.3687 6.28012 95.7969 6.39076 96.2202 6.51584C96.6532 6.64092 97.0428 6.80448 97.3892 7.00653C97.7452 7.20858 98.029 7.48278 98.2407 7.82915C98.462 8.17552 98.5726 8.61329 98.5726 9.14246C98.5726 9.68126 98.4235 10.1816 98.1252 10.6434C97.8366 11.0956 97.3892 11.4612 96.783 11.7402C96.1769 12.0096 95.412 12.1443 94.4884 12.1443ZM103.161 12.101C102.314 12.101 101.66 11.8845 101.198 11.4516C100.736 11.009 100.505 10.3596 100.505 9.50326V2.59034H102.309V9.45997C102.309 9.82558 102.401 10.1094 102.583 10.3115C102.776 10.5135 103.04 10.6145 103.377 10.6145C103.781 10.6145 104.118 10.5087 104.387 10.297L104.892 11.5815C104.681 11.7547 104.421 11.8845 104.113 11.9711C103.805 12.0577 103.488 12.101 103.161 12.101ZM99.2351 5.79424V4.35104H104.373V5.79424H99.2351ZM109.586 12.101C108.798 12.101 108.095 11.9327 107.479 11.5959C106.864 11.2495 106.378 10.7781 106.022 10.1816C105.666 9.58505 105.488 8.90674 105.488 8.14666C105.488 7.37695 105.666 6.69865 106.022 6.11174C106.378 5.51522 106.864 5.04859 107.479 4.71184C108.095 4.37509 108.798 4.20672 109.586 4.20672C110.385 4.20672 111.092 4.37509 111.708 4.71184C112.333 5.04859 112.819 5.51041 113.166 6.09731C113.522 6.68421 113.7 7.36733 113.7 8.14666C113.7 8.90674 113.522 9.58505 113.166 10.1816C112.819 10.7781 112.333 11.2495 111.708 11.5959C111.092 11.9327 110.385 12.101 109.586 12.101ZM109.586 10.5568C110.029 10.5568 110.424 10.4606 110.77 10.2682C111.116 10.0757 111.386 9.79671 111.578 9.4311C111.78 9.06549 111.881 8.63734 111.881 8.14666C111.881 7.64635 111.78 7.2182 111.578 6.86221C111.386 6.4966 111.116 6.21758 110.77 6.02515C110.424 5.83272 110.034 5.73651 109.601 5.73651C109.158 5.73651 108.764 5.83272 108.417 6.02515C108.081 6.21758 107.811 6.4966 107.609 6.86221C107.407 7.2182 107.306 7.64635 107.306 8.14666C107.306 8.63734 107.407 9.06549 107.609 9.4311C107.811 9.79671 108.081 10.0757 108.417 10.2682C108.764 10.4606 109.154 10.5568 109.586 10.5568ZM115.425 12V4.29331H117.142V6.41482L116.94 5.79424C117.171 5.27469 117.532 4.88021 118.022 4.61082C118.523 4.34142 119.143 4.20672 119.884 4.20672V5.92413C119.807 5.90489 119.735 5.89526 119.668 5.89526C119.6 5.88564 119.533 5.88083 119.466 5.88083C118.783 5.88083 118.239 6.08288 117.835 6.48698C117.431 6.88145 117.229 7.47316 117.229 8.26211V12H115.425ZM124.966 12.101C124.11 12.101 123.36 11.9327 122.715 11.5959C122.08 11.2495 121.585 10.7781 121.229 10.1816C120.882 9.58505 120.709 8.90674 120.709 8.14666C120.709 7.37695 120.877 6.69865 121.214 6.11174C121.561 5.51522 122.032 5.04859 122.628 4.71184C123.235 4.37509 123.923 4.20672 124.692 4.20672C125.443 4.20672 126.111 4.37028 126.698 4.69741C127.285 5.02453 127.747 5.48636 128.084 6.08288C128.421 6.6794 128.589 7.38176 128.589 8.18995C128.589 8.26692 128.584 8.35351 128.574 8.44973C128.574 8.54594 128.57 8.63734 128.56 8.72394H122.138V7.52608H127.608L126.9 7.90131C126.91 7.45873 126.819 7.06907 126.626 6.73232C126.434 6.39557 126.169 6.13099 125.832 5.93856C125.505 5.74613 125.125 5.64992 124.692 5.64992C124.25 5.64992 123.86 5.74613 123.523 5.93856C123.196 6.13099 122.936 6.40038 122.744 6.74675C122.561 7.0835 122.47 7.48278 122.47 7.94461V8.23325C122.47 8.69507 122.576 9.10398 122.787 9.45997C122.999 9.81596 123.297 10.0902 123.682 10.2826C124.067 10.475 124.509 10.5712 125.01 10.5712C125.443 10.5712 125.832 10.5039 126.179 10.3692C126.525 10.2345 126.833 10.0228 127.102 9.73418L128.069 10.8454C127.723 11.2495 127.285 11.5622 126.756 11.7835C126.236 11.9952 125.64 12.101 124.966 12.101Z" fill="white"/>
</svg>
