<svg width="131" height="53" viewBox="0 0 131 53" fill="none" xmlns="http://www.w3.org/2000/svg">
<path d="M10.9472 44.352C9.02293 44.352 7.1808 44.0821 5.4208 43.5424C3.6608 42.9792 2.26453 42.2635 1.232 41.3952L2.816 37.84C3.8016 38.6144 5.02187 39.2597 6.4768 39.776C7.93173 40.2923 9.42187 40.5504 10.9472 40.5504C12.2379 40.5504 13.2821 40.4096 14.08 40.128C14.8779 39.8464 15.4645 39.4709 15.84 39.0016C16.2155 38.5088 16.4032 37.9573 16.4032 37.3472C16.4032 36.5963 16.1333 35.9979 15.5936 35.552C15.0539 35.0827 14.3499 34.7189 13.4816 34.4608C12.6368 34.1792 11.6864 33.9211 10.6304 33.6864C9.59787 33.4517 8.5536 33.1819 7.4976 32.8768C6.46507 32.5483 5.51467 32.1376 4.6464 31.6448C3.8016 31.1285 3.10933 30.448 2.5696 29.6032C2.02987 28.7584 1.76 27.6789 1.76 26.3648C1.76 25.0272 2.112 23.8069 2.816 22.704C3.54347 21.5776 4.63467 20.6859 6.0896 20.0288C7.568 19.3483 9.4336 19.008 11.6864 19.008C13.1648 19.008 14.6315 19.1957 16.0864 19.5712C17.5413 19.9467 18.8085 20.4864 19.888 21.1904L18.4448 24.7456C17.3419 24.0885 16.2037 23.6075 15.0304 23.3024C13.8571 22.9739 12.7307 22.8096 11.6512 22.8096C10.384 22.8096 9.35147 22.9621 8.5536 23.2672C7.7792 23.5723 7.20427 23.9712 6.8288 24.464C6.4768 24.9568 6.3008 25.52 6.3008 26.1536C6.3008 26.9045 6.55893 27.5147 7.0752 27.984C7.61493 28.4299 8.3072 28.7819 9.152 29.04C10.0203 29.2981 10.9824 29.5563 12.0384 29.8144C13.0944 30.0491 14.1387 30.3189 15.1712 30.624C16.2272 30.9291 17.1776 31.328 18.0224 31.8208C18.8907 32.3136 19.5829 32.9824 20.0992 33.8272C20.6389 34.672 20.9088 35.7397 20.9088 37.0304C20.9088 38.3445 20.5451 39.5648 19.8176 40.6912C19.1136 41.7941 18.0224 42.6859 16.544 43.3664C15.0656 44.0235 13.2 44.352 10.9472 44.352ZM29.6786 44L21.6178 25.2032H26.1938L33.1282 41.7824H30.8754L38.0562 25.2032H42.2802L34.2194 44H29.6786ZM52.9625 44.2464C51.0383 44.2464 49.3252 43.8357 47.8233 43.0144C46.3215 42.1696 45.1364 41.0197 44.2681 39.5648C43.3999 38.1099 42.9657 36.4555 42.9657 34.6016C42.9657 32.7243 43.3999 31.0699 44.2681 29.6384C45.1364 28.1835 46.3215 27.0453 47.8233 26.224C49.3252 25.4027 51.0383 24.992 52.9625 24.992C54.9103 24.992 56.6351 25.4027 58.1369 26.224C59.6623 27.0453 60.8473 28.1717 61.6921 29.6032C62.5604 31.0347 62.9945 32.7008 62.9945 34.6016C62.9945 36.4555 62.5604 38.1099 61.6921 39.5648C60.8473 41.0197 59.6623 42.1696 58.1369 43.0144C56.6351 43.8357 54.9103 44.2464 52.9625 44.2464ZM52.9625 40.48C54.042 40.48 55.0041 40.2453 55.8489 39.776C56.6937 39.3067 57.3508 38.6261 57.8201 37.7344C58.3129 36.8427 58.5593 35.7984 58.5593 34.6016C58.5593 33.3813 58.3129 32.3371 57.8201 31.4688C57.3508 30.5771 56.6937 29.8965 55.8489 29.4272C55.0041 28.9579 54.0537 28.7232 52.9977 28.7232C51.9183 28.7232 50.9561 28.9579 50.1113 29.4272C49.29 29.8965 48.6329 30.5771 48.1401 31.4688C47.6473 32.3371 47.4009 33.3813 47.4009 34.6016C47.4009 35.7984 47.6473 36.8427 48.1401 37.7344C48.6329 38.6261 49.29 39.3067 50.1113 39.776C50.9561 40.2453 51.9065 40.48 52.9625 40.48ZM65.266 51.0752C64.4447 51.0752 63.6703 50.9813 62.9428 50.7936C62.1919 50.6293 61.5583 50.3595 61.042 49.984L62.3092 46.7104C62.9898 47.2032 63.8463 47.4496 64.8788 47.4496C65.6767 47.4496 66.2986 47.1915 66.7444 46.6752C67.1903 46.1824 67.4132 45.4432 67.4132 44.4576V25.2032H71.8132V44.352C71.8132 46.4171 71.2383 48.048 70.0884 49.2448C68.962 50.4651 67.3546 51.0752 65.266 51.0752ZM69.5956 22.1056C68.7743 22.1056 68.0938 21.8475 67.554 21.3312C67.0378 20.8149 66.7796 20.1931 66.7796 19.4656C66.7796 18.7147 67.0378 18.0928 67.554 17.6C68.0938 17.0837 68.7743 16.8256 69.5956 16.8256C70.417 16.8256 71.0858 17.072 71.602 17.5648C72.1418 18.0341 72.4116 18.6325 72.4116 19.36C72.4116 20.1344 72.1535 20.7915 71.6372 21.3312C71.121 21.8475 70.4404 22.1056 69.5956 22.1056ZM86.4185 44.2464C84.3299 44.2464 82.4995 43.8357 80.9273 43.0144C79.3785 42.1696 78.1699 41.0197 77.3017 39.5648C76.4569 38.1099 76.0345 36.4555 76.0345 34.6016C76.0345 32.7243 76.4451 31.0699 77.2665 29.6384C78.1113 28.1835 79.2611 27.0453 80.7161 26.224C82.1945 25.4027 83.8723 24.992 85.7497 24.992C87.5801 24.992 89.211 25.3909 90.6425 26.1888C92.0739 26.9867 93.2003 28.1131 94.0217 29.568C94.843 31.0229 95.2537 32.736 95.2537 34.7072C95.2537 34.8949 95.2419 35.1061 95.2185 35.3408C95.2185 35.5755 95.2067 35.7984 95.1833 36.0096H79.5193V33.088H92.8601L91.1353 34.0032C91.1587 32.9237 90.9358 31.9733 90.4665 31.152C89.9971 30.3307 89.3518 29.6853 88.5305 29.216C87.7326 28.7467 86.8057 28.512 85.7497 28.512C84.6702 28.512 83.7198 28.7467 82.8985 29.216C82.1006 29.6853 81.467 30.3424 80.9977 31.1872C80.5518 32.0085 80.3289 32.9824 80.3289 34.1088V34.8128C80.3289 35.9392 80.587 36.9365 81.1033 37.8048C81.6195 38.6731 82.347 39.3419 83.2857 39.8112C84.2243 40.2805 85.3038 40.5152 86.5241 40.5152C87.5801 40.5152 88.5305 40.3509 89.3753 40.0224C90.2201 39.6939 90.971 39.1776 91.6281 38.4736L93.9865 41.184C93.1417 42.1696 92.0739 42.9323 90.7833 43.472C89.5161 43.9883 88.0611 44.2464 86.4185 44.2464ZM105.288 44.2464C103.716 44.2464 102.202 44.0469 100.747 43.648C99.3159 43.2256 98.1778 42.7211 97.333 42.1344L99.0226 38.7904C99.8674 39.3301 100.876 39.776 102.05 40.128C103.223 40.48 104.396 40.656 105.57 40.656C106.954 40.656 107.952 40.4683 108.562 40.0928C109.195 39.7173 109.512 39.2128 109.512 38.5792C109.512 38.0629 109.301 37.6757 108.879 37.4176C108.456 37.136 107.905 36.9248 107.224 36.784C106.544 36.6432 105.781 36.5141 104.936 36.3968C104.115 36.2795 103.282 36.1269 102.437 35.9392C101.616 35.728 100.865 35.4347 100.184 35.0592C99.5036 34.6603 98.9522 34.1323 98.5298 33.4752C98.1074 32.8181 97.8962 31.9499 97.8962 30.8704C97.8962 29.6736 98.2364 28.6411 98.917 27.7728C99.5975 26.8811 100.548 26.2005 101.768 25.7312C103.012 25.2384 104.479 24.992 106.168 24.992C107.435 24.992 108.714 25.1328 110.005 25.4144C111.296 25.696 112.363 26.0949 113.208 26.6112L111.519 29.9552C110.627 29.4155 109.723 29.0517 108.808 28.864C107.916 28.6528 107.025 28.5472 106.133 28.5472C104.795 28.5472 103.798 28.7467 103.141 29.1456C102.507 29.5445 102.191 30.0491 102.191 30.6592C102.191 31.2224 102.402 31.6448 102.824 31.9264C103.247 32.208 103.798 32.4309 104.479 32.5952C105.159 32.7595 105.91 32.9003 106.731 33.0176C107.576 33.1115 108.409 33.264 109.231 33.4752C110.052 33.6864 110.803 33.9797 111.483 34.3552C112.187 34.7072 112.751 35.2117 113.173 35.8688C113.595 36.5259 113.807 37.3824 113.807 38.4384C113.807 39.6117 113.455 40.6325 112.751 41.5008C112.07 42.3691 111.096 43.0496 109.829 43.5424C108.562 44.0117 107.048 44.2464 105.288 44.2464ZM124.671 44.2464C122.606 44.2464 121.01 43.7184 119.884 42.6624C118.757 41.5829 118.194 39.9989 118.194 37.9104V21.0496H122.594V37.8048C122.594 38.6965 122.817 39.3888 123.263 39.8816C123.732 40.3744 124.378 40.6208 125.199 40.6208C126.185 40.6208 127.006 40.3627 127.663 39.8464L128.895 42.9792C128.379 43.4016 127.745 43.7184 126.994 43.9296C126.243 44.1408 125.469 44.2464 124.671 44.2464ZM115.097 28.864V25.344H127.628V28.864H115.097Z" fill="black"/>
<path d="M95.85 12.1443C95.0611 12.1443 94.3058 12.0337 93.5842 11.8124C92.8626 11.5815 92.2901 11.288 91.8668 10.932L92.5162 9.4744C92.9203 9.7919 93.4206 10.0565 94.0171 10.2682C94.6137 10.4798 95.2246 10.5857 95.85 10.5857C96.3792 10.5857 96.8073 10.5279 97.1345 10.4125C97.4616 10.297 97.7021 10.1431 97.8561 9.95066C98.01 9.74861 98.087 9.52251 98.087 9.27235C98.087 8.96447 97.9763 8.71913 97.755 8.53632C97.5337 8.34389 97.2451 8.19476 96.8891 8.08893C96.5427 7.97347 96.1531 7.86764 95.7201 7.77142C95.2968 7.67521 94.8686 7.56457 94.4357 7.43949C94.0123 7.30479 93.6227 7.13642 93.2667 6.93437C92.9203 6.7227 92.6365 6.44368 92.4152 6.09731C92.1939 5.75094 92.0833 5.30836 92.0833 4.76957C92.0833 4.22115 92.2276 3.72084 92.5162 3.26864C92.8145 2.80682 93.2619 2.4412 93.8584 2.17181C94.4645 1.89279 95.2294 1.75328 96.1531 1.75328C96.7592 1.75328 97.3606 1.83025 97.9571 1.98419C98.5536 2.13813 99.0732 2.35942 99.5157 2.64806L98.924 4.1057C98.4718 3.8363 98.0052 3.63906 97.5241 3.51398C97.0431 3.37928 96.5812 3.31194 96.1386 3.31194C95.6191 3.31194 95.1958 3.37447 94.8686 3.49955C94.5511 3.62463 94.3154 3.78819 94.1615 3.99024C94.0171 4.19229 93.945 4.4232 93.945 4.68298C93.945 4.99086 94.0508 5.24101 94.2625 5.43344C94.4838 5.61625 94.7676 5.76057 95.114 5.8664C95.47 5.97223 95.8644 6.07807 96.2974 6.1839C96.7304 6.28012 97.1585 6.39076 97.5818 6.51584C98.0148 6.64092 98.4045 6.80448 98.7508 7.00653C99.1068 7.20858 99.3907 7.48278 99.6023 7.82915C99.8236 8.17552 99.9343 8.61329 99.9343 9.14246C99.9343 9.68126 99.7851 10.1816 99.4869 10.6434C99.1982 11.0956 98.7508 11.4612 98.1447 11.7402C97.5386 12.0096 96.7737 12.1443 95.85 12.1443ZM104.522 12.101C103.676 12.101 103.021 11.8845 102.56 11.4516C102.098 11.009 101.867 10.3596 101.867 9.50326V2.59034H103.671V9.45997C103.671 9.82558 103.762 10.1094 103.945 10.3115C104.137 10.5135 104.402 10.6145 104.739 10.6145C105.143 10.6145 105.48 10.5087 105.749 10.297L106.254 11.5815C106.042 11.7547 105.783 11.8845 105.475 11.9711C105.167 12.0577 104.849 12.101 104.522 12.101ZM100.597 5.79424V4.35104H105.735V5.79424H100.597ZM110.948 12.101C110.159 12.101 109.457 11.9327 108.841 11.5959C108.225 11.2495 107.739 10.7781 107.383 10.1816C107.027 9.58505 106.849 8.90674 106.849 8.14666C106.849 7.37695 107.027 6.69865 107.383 6.11174C107.739 5.51522 108.225 5.04859 108.841 4.71184C109.457 4.37509 110.159 4.20672 110.948 4.20672C111.747 4.20672 112.454 4.37509 113.07 4.71184C113.695 5.04859 114.181 5.51041 114.527 6.09731C114.883 6.68421 115.061 7.36733 115.061 8.14666C115.061 8.90674 114.883 9.58505 114.527 10.1816C114.181 10.7781 113.695 11.2495 113.07 11.5959C112.454 11.9327 111.747 12.101 110.948 12.101ZM110.948 10.5568C111.391 10.5568 111.785 10.4606 112.132 10.2682C112.478 10.0757 112.747 9.79671 112.94 9.4311C113.142 9.06549 113.243 8.63734 113.243 8.14666C113.243 7.64635 113.142 7.2182 112.94 6.86221C112.747 6.4966 112.478 6.21758 112.132 6.02515C111.785 5.83272 111.396 5.73651 110.963 5.73651C110.52 5.73651 110.126 5.83272 109.779 6.02515C109.442 6.21758 109.173 6.4966 108.971 6.86221C108.769 7.2182 108.668 7.64635 108.668 8.14666C108.668 8.63734 108.769 9.06549 108.971 9.4311C109.173 9.79671 109.442 10.0757 109.779 10.2682C110.126 10.4606 110.515 10.5568 110.948 10.5568ZM116.786 12V4.29331H118.504V6.41482L118.302 5.79424C118.533 5.27469 118.893 4.88021 119.384 4.61082C119.884 4.34142 120.505 4.20672 121.246 4.20672V5.92413C121.169 5.90489 121.097 5.89526 121.029 5.89526C120.962 5.88564 120.895 5.88083 120.827 5.88083C120.144 5.88083 119.601 6.08288 119.196 6.48698C118.792 6.88145 118.59 7.47316 118.59 8.26211V12H116.786ZM126.328 12.101C125.472 12.101 124.721 11.9327 124.077 11.5959C123.442 11.2495 122.946 10.7781 122.59 10.1816C122.244 9.58505 122.071 8.90674 122.071 8.14666C122.071 7.37695 122.239 6.69865 122.576 6.11174C122.922 5.51522 123.394 5.04859 123.99 4.71184C124.596 4.37509 125.284 4.20672 126.054 4.20672C126.804 4.20672 127.473 4.37028 128.06 4.69741C128.647 5.02453 129.109 5.48636 129.445 6.08288C129.782 6.6794 129.951 7.38176 129.951 8.18995C129.951 8.26692 129.946 8.35351 129.936 8.44973C129.936 8.54594 129.931 8.63734 129.922 8.72394H123.499V7.52608H128.969L128.262 7.90131C128.272 7.45873 128.18 7.06907 127.988 6.73232C127.795 6.39557 127.531 6.13099 127.194 5.93856C126.867 5.74613 126.487 5.64992 126.054 5.64992C125.611 5.64992 125.222 5.74613 124.885 5.93856C124.558 6.13099 124.298 6.40038 124.106 6.74675C123.923 7.0835 123.831 7.48278 123.831 7.94461V8.23325C123.831 8.69507 123.937 9.10398 124.149 9.45997C124.361 9.81596 124.659 10.0902 125.044 10.2826C125.429 10.475 125.871 10.5712 126.371 10.5712C126.804 10.5712 127.194 10.5039 127.54 10.3692C127.887 10.2345 128.195 10.0228 128.464 9.73418L129.431 10.8454C129.085 11.2495 128.647 11.5622 128.118 11.7835C127.598 11.9952 127.002 12.101 126.328 12.101Z" fill="#2563EB"/>
</svg>
